<svg xmlns="http://www.w3.org/2000/svg" viewBox="0 0 512 512" role="img" aria-label="Igor Ignashin site icon">
  <defs>
    <linearGradient id="bg" x1="72" y1="44" x2="454" y2="466" gradientUnits="userSpaceOnUse">
      <stop offset="0" stop-color="#11151c"/>
      <stop offset="0.54" stop-color="#10272c"/>
      <stop offset="1" stop-color="#087c89"/>
    </linearGradient>
    <linearGradient id="bolt" x1="190" y1="94" x2="320" y2="420" gradientUnits="userSpaceOnUse">
      <stop offset="0" stop-color="#f7d77a"/>
      <stop offset="1" stop-color="#ee8b7e"/>
    </linearGradient>
    <filter id="shadow" x="-20%" y="-20%" width="140%" height="140%">
      <feDropShadow dx="0" dy="16" stdDeviation="18" flood-color="#061116" flood-opacity="0.35"/>
    </filter>
  </defs>
  <rect width="512" height="512" rx="112" fill="url(#bg)"/>
  <path d="M72 348C138 296 177 275 251 295C318 313 366 294 440 234" fill="none" stroke="#31b6c5" stroke-width="18" stroke-linecap="round" opacity="0.32"/>
  <path d="M80 164C141 120 190 108 256 128C318 147 365 142 432 100" fill="none" stroke="#ffffff" stroke-width="14" stroke-linecap="round" opacity="0.18"/>
  <g filter="url(#shadow)">
    <path d="M128 128H224V170H197V342H224V384H128V342H155V170H128V128Z" fill="#f7fbff"/>
    <path d="M288 128H384V170H357V342H384V384H288V342H315V170H288V128Z" fill="#f7fbff"/>
    <path d="M282 88L204 276H268L222 424L332 222H266L282 88Z" fill="url(#bolt)"/>
  </g>
  <rect x="18" y="18" width="476" height="476" rx="94" fill="none" stroke="#ffffff" stroke-width="12" opacity="0.18"/>
</svg>
